<svg id="Layer_1" data-name="Layer 1" xmlns="http://www.w3.org/2000/svg" viewBox="0 0 360 290"><defs><style>.cls-1{fill:#fff;opacity:0;}</style></defs><title>Translated_Secondary_Black_rgb</title><rect class="cls-1" width="360" height="290"/><path d="M59.83,249.36a11.14,11.14,0,0,1-6.91,2.14c-3.53,0-6.24-1.15-7.84-3.68-1-1.49-1.38-3.25-1.38-6V226.65H38.83V222H43.7v-7.75h6.13V222h9v4.67h-9v15.18c0,2.91,1.38,4.28,3.92,4.28a5.77,5.77,0,0,0,3.65-1.26Z"/><path d="M81,228.36a6.83,6.83,0,0,0-3.32-.88c-3.7,0-7,3.19-7,8.68v14.68H64.61V222h6.08v4.67c1.93-3,4.81-5.22,8.18-5.22a7.39,7.39,0,0,1,3.87,1Z"/><path d="M109.53,251.28c-2.7,0-5.19-1.26-5.8-4.29-2.37,3.41-6.24,4.51-9.67,4.51-6,0-9.94-3.24-9.94-8.91,0-7.14,6.35-8.24,11.32-8.79,4.2-.44,7.35-.82,7.35-3.63s-3.2-3.68-5.91-3.68a16.15,16.15,0,0,0-9.06,2.91l-2.43-4.56a21.24,21.24,0,0,1,11.93-3.52c6.85,0,11.66,2.75,11.66,9.68v13.13c0,1.87.61,2.64,2,2.64a3.06,3.06,0,0,0,1.6-.38l.66,4.18A9.78,9.78,0,0,1,109.53,251.28Zm-6.68-15.78c-1.66,2.09-4.15,2.09-7.24,2.59s-5.36,1.37-5.36,4.39,2.32,4.29,5.3,4.29c3.82,0,7.3-2,7.3-6.87Z"/><path d="M117.16,250.84V222h6.08v4.23a11.55,11.55,0,0,1,9.5-4.89c6.36,0,10,4.23,10,10.72v18.8h-6.08V233.41c0-3.07-1-6.54-5.74-6.54a7.43,7.43,0,0,0-7.68,7.81v16.16Z"/><path d="M160.59,251.5c-5.91,0-10.72-2.25-13.48-6.49l4.31-3a11.38,11.38,0,0,0,9.5,4.56c3.59,0,6-1.32,6-3.85s-2.65-3.18-7.35-3.95c-6.07-1.05-10.94-2.75-10.94-8.69s5.36-8.74,11.39-8.74a17,17,0,0,1,12.48,5.06l-3.86,3.52a11.44,11.44,0,0,0-8.68-3.63c-2.76,0-5.41,1-5.41,3.24,0,2.53,3.09,3.08,6.9,3.74,6.19,1.1,11.5,2.69,11.5,8.8C173,247.71,168.32,251.5,160.59,251.5Z"/><path d="M178.38,211.59h6.08v31.72c0,2.36,1,3,2.54,3a5.18,5.18,0,0,0,2.49-.6l1.16,4.62a9.65,9.65,0,0,1-4.7,1c-2.71,0-5-.82-6.35-2.64-.94-1.37-1.22-3-1.22-5.5Z"/><path d="M219.39,251.28c-2.71,0-5.19-1.26-5.8-4.29-2.38,3.41-6.24,4.51-9.67,4.51-6,0-9.95-3.24-9.95-8.91,0-7.14,6.36-8.24,11.33-8.79,4.2-.44,7.35-.82,7.35-3.63s-3.2-3.68-5.91-3.68a16.1,16.1,0,0,0-9.06,2.91l-2.44-4.56a21.3,21.3,0,0,1,11.94-3.52c6.85,0,11.66,2.75,11.66,9.68v13.13c0,1.87.61,2.64,2,2.64a3.07,3.07,0,0,0,1.61-.38l.66,4.18A9.82,9.82,0,0,1,219.39,251.28Zm-6.68-15.78c-1.66,2.09-4.15,2.09-7.24,2.59s-5.36,1.37-5.36,4.39,2.32,4.29,5.3,4.29c3.81,0,7.3-2,7.3-6.87Z"/><path d="M244.64,249.36a11.13,11.13,0,0,1-6.9,2.14c-3.54,0-6.25-1.15-7.85-3.68-1-1.49-1.38-3.25-1.38-6V226.65h-4.86V222h4.86v-7.75h6.13V222h9v4.67h-9v15.18c0,2.91,1.38,4.28,3.92,4.28a5.77,5.77,0,0,0,3.65-1.26Z"/><path d="M275.42,237.92h-22.1c.27,5.28,3.75,8.19,8.89,8.19a11.11,11.11,0,0,0,8.4-3.63l4,3.8A16.58,16.58,0,0,1,262,251.5c-9.78,0-15.19-6.43-15.19-14.95s5.47-15.23,14.58-15.23c8.79,0,14.15,6.21,14.15,14.51A17.82,17.82,0,0,1,275.42,237.92Zm-6-4.4a8,8,0,0,0-16,0Z"/><path d="M302.05,250.84v-4.23a11.69,11.69,0,0,1-9.78,4.89C284,251.5,279,245,279,236.44s5.09-15.12,13.32-15.12a11.63,11.63,0,0,1,9.78,4.89V211.59h6.14v39.25Zm-8.45-24.08c-5.53,0-8.18,4.35-8.18,9.68s2.65,9.62,8.18,9.62,8.45-4.29,8.45-9.62S299.12,226.76,293.6,226.76Z"/><ellipse cx="317.58" cy="247.22" rx="3.59" ry="3.57"/><path d="M179.75,47.45A58.43,58.43,0,1,1,121,105.88a58.65,58.65,0,0,1,58.73-58.43m0-9a67.38,67.38,0,1,0,67.74,67.38A67.56,67.56,0,0,0,179.75,38.5Z"/><path d="M196.12,134.17a19.07,19.07,0,0,1-11.87,3.69c-6.08,0-10.73-2-13.48-6.33-1.71-2.55-2.38-5.57-2.38-10.39v-26H156.22v-8h12.17V73.82h10.54v47.41c0,5,2.38,7.37,6.74,7.37a9.93,9.93,0,0,0,6.27-2.17Z"/><path d="M191.25,91.05h0a6.15,6.15,0,0,1,6.12-6.18h.19a6.15,6.15,0,0,1,6.12,6.18h0a6.15,6.15,0,0,1-6.12,6.18h-.19A6.15,6.15,0,0,1,191.25,91.05Z"/></svg>