<svg id="Layer_1" data-name="Layer 1" xmlns="http://www.w3.org/2000/svg" viewBox="0 0 216 216"><title>Translated_Mark_black_rgb</title><path d="M108,47.88A60.12,60.12,0,1,1,47.88,108,60.19,60.19,0,0,1,108,47.88M108,38a70,70,0,1,0,70,70,70,70,0,0,0-70-70Z"/><path d="M124.91,137.39a19.63,19.63,0,0,1-12.26,3.83c-6.28,0-11.09-2.06-13.94-6.57-1.76-2.65-2.45-5.79-2.45-10.8v-27H83.67V88.53H96.26V74.69h10.89V124c0,5.2,2.45,7.65,7,7.65a10.26,10.26,0,0,0,6.47-2.25Z"/><path d="M119.88,92.59h0a6.37,6.37,0,0,1,6.32-6.42h.2a6.37,6.37,0,0,1,6.32,6.42h0A6.37,6.37,0,0,1,126.4,99h-.2A6.37,6.37,0,0,1,119.88,92.59Z"/></svg>