<svg id="Layer_1" data-name="Layer 1" xmlns="http://www.w3.org/2000/svg" viewBox="0 0 966 216"><defs><style>.cls-1{fill:#fff;opacity:0;}</style></defs><title>Translated_Labs_black_rgb</title><rect class="cls-1" width="964" height="216"/><path d="M108,47.88A60.12,60.12,0,1,1,47.88,108,60.19,60.19,0,0,1,108,47.88M108,38a70,70,0,1,0,70,70,70,70,0,0,0-70-70Z"/><path d="M124.91,137.39a19.63,19.63,0,0,1-12.26,3.83c-6.28,0-11.09-2.06-13.94-6.57-1.76-2.65-2.45-5.79-2.45-10.8v-27H83.67V88.53H96.26V74.69h10.89V124c0,5.2,2.45,7.65,7,7.65a10.26,10.26,0,0,0,6.47-2.25Z"/><path d="M119.88,92.59h0a6.37,6.37,0,0,1,6.32-6.42h.2a6.37,6.37,0,0,1,6.32,6.42h0A6.37,6.37,0,0,1,126.4,99h-.2A6.37,6.37,0,0,1,119.88,92.59Z"/><path d="M252.44,137.7a19.8,19.8,0,0,1-12.34,3.86c-6.33,0-11.17-2.08-14-6.62-1.78-2.67-2.47-5.83-2.47-10.87V96.9h-8.7V88.51h8.7V74.58h11V88.51h16V96.9h-16v27.27c0,5.24,2.47,7.7,7,7.7a10.3,10.3,0,0,0,6.52-2.27Z"/><path d="M290.77,100a12.26,12.26,0,0,0-5.93-1.58c-6.62,0-12.45,5.73-12.45,15.6v26.38H261.53V88.51h10.86V96.9c3.46-5.43,8.6-9.38,14.62-9.38a13.12,13.12,0,0,1,6.92,1.78Z"/><path d="M341.84,141.16c-4.85,0-9.29-2.27-10.38-7.7-4.25,6.12-11.16,8.1-17.28,8.1-10.67,0-17.79-5.83-17.79-16,0-12.84,11.36-14.82,20.26-15.8,7.5-.79,13.13-1.49,13.13-6.52s-5.73-6.62-10.57-6.62a28.76,28.76,0,0,0-16.2,5.23l-4.34-8.2A37.93,37.93,0,0,1,320,87.32c12.25,0,20.85,4.94,20.85,17.39v23.61c0,3.36,1.08,4.74,3.65,4.74a5.41,5.41,0,0,0,2.87-.69l1.18,7.51A17.27,17.27,0,0,1,341.84,141.16Zm-12-28.35c-3,3.75-7.41,3.75-12.94,4.64s-9.58,2.47-9.58,7.9,4.15,7.71,9.48,7.71c6.82,0,13-3.65,13-12.35Z"/><path d="M355.46,140.37V88.51h10.87v7.6c4.25-5.63,10-8.79,17-8.79,11.36,0,17.88,7.61,17.88,19.27v33.78H390.33V109.05c0-5.53-1.77-11.75-10.27-11.75-7.71,0-13.73,5.43-13.73,14v29Z"/><path d="M433.1,141.56c-10.57,0-19.16-4.05-24.1-11.66l7.71-5.43c4,5.53,10.27,8.2,17,8.2,6.42,0,10.76-2.38,10.76-6.92,0-4.74-4.74-5.73-13.13-7.11-10.87-1.88-19.56-4.94-19.56-15.61s9.58-15.71,20.35-15.71c10.47,0,18.07,4.55,22.32,9.09l-6.91,6.32A20.39,20.39,0,0,0,432,96.21c-4.94,0-9.68,1.78-9.68,5.83,0,4.55,5.53,5.53,12.34,6.72,11.07,2,20.55,4.84,20.55,15.8C455.23,134.74,446.93,141.56,433.1,141.56Z"/><path d="M464.91,69.84h10.86v57c0,4.24,1.78,5.43,4.55,5.43a9,9,0,0,0,4.44-1.09l2.08,8.3a17,17,0,0,1-8.4,1.88c-4.84,0-9-1.48-11.36-4.74-1.68-2.47-2.17-5.34-2.17-9.88Z"/><path d="M536.33,141.16c-4.84,0-9.29-2.27-10.38-7.7-4.24,6.12-11.16,8.1-17.28,8.1-10.67,0-17.78-5.83-17.78-16,0-12.84,11.36-14.82,20.25-15.8,7.5-.79,13.13-1.49,13.13-6.52s-5.72-6.62-10.56-6.62a28.76,28.76,0,0,0-16.21,5.23l-4.34-8.2a37.93,37.93,0,0,1,21.34-6.32c12.24,0,20.84,4.94,20.84,17.39v23.61c0,3.36,1.09,4.74,3.65,4.74a5.41,5.41,0,0,0,2.87-.69l1.18,7.51A17.23,17.23,0,0,1,536.33,141.16Zm-12-28.35c-3,3.75-7.4,3.75-12.94,4.64s-9.58,2.47-9.58,7.9,4.15,7.71,9.48,7.71c6.82,0,13-3.65,13-12.35Z"/><path d="M581.47,137.7a19.81,19.81,0,0,1-12.35,3.86c-6.32,0-11.16-2.08-14-6.62-1.78-2.67-2.47-5.83-2.47-10.87V96.9h-8.69V88.51h8.69V74.58h11V88.51h16V96.9h-16v27.27c0,5.24,2.47,7.7,7,7.7a10.25,10.25,0,0,0,6.52-2.27Z"/><path d="M636.49,117.16H597c.5,9.48,6.72,14.71,15.91,14.71a19.83,19.83,0,0,0,15-6.52l7.12,6.82c-5.44,5.73-12.65,9.39-22.53,9.39-17.48,0-27.16-11.56-27.16-26.87s9.78-27.37,26.08-27.37c15.7,0,25.28,11.17,25.28,26.08A34.45,34.45,0,0,1,636.49,117.16Zm-10.77-7.91c-.79-8.69-6.82-13.14-14.23-13.14-8.19,0-13.73,5.44-14.32,13.14Z"/><path d="M684.1,140.37v-7.61a20.87,20.87,0,0,1-17.49,8.8c-14.72,0-23.81-11.76-23.81-27.07s9.09-27.17,23.81-27.17a20.76,20.76,0,0,1,17.49,8.79V69.84h11v70.53ZM669,97.1c-9.88,0-14.62,7.81-14.62,17.39s4.74,17.29,14.62,17.29,15.12-7.71,15.12-17.29S678.86,97.1,669,97.1Z"/><path d="M724.3,140.37v-54h11v44.75H764.6v9.29Z"/><path d="M812.9,140.37l-5.24-13.14H784.15l-5.23,13.14H767.76l22-54h12.75l22,54ZM796,95.42l-8.79,23.12H804.6Z"/><path d="M856.76,140.37H829.59v-54h25.88c10.77,0,17.78,5,17.78,13.44a12.72,12.72,0,0,1-7.31,11.56c6.23,2.57,9.39,7.31,9.39,13.43C875.33,133.85,868.81,140.37,856.76,140.37Zm-1.88-45.05H840.56V108h14.12c4.65,0,7.51-2.77,7.51-6.52C862.19,97.2,858.83,95.32,854.88,95.32ZM856,116.46H840.56v14.92h15.6c4.94,0,8-3,8-7.31S861.4,116.46,856,116.46Z"/><path d="M894.29,100.46c0,4.74,4.64,5.73,12.15,7.21,11,2.18,21.24,4.94,21.24,16.3,0,10.37-8.59,17.59-22.72,17.59-11.76,0-19.76-4.94-24.4-12.25l8.3-5c3.75,6.12,10.67,8.49,16.69,8.49,6.33,0,11.07-2.66,11.07-7.5,0-5.14-5.14-6.33-14.43-8-10.76-2-18.77-5.73-18.77-15.8,0-10.67,9.09-16.3,20.65-16.3,10.08,0,17.68,4.25,22.72,10.47l-7.41,5.63a19.8,19.8,0,0,0-15.51-7.31C899.13,93.94,894.29,95.62,894.29,100.46Z"/></svg>