<svg id="Layer_1" data-name="Layer 1" xmlns="http://www.w3.org/2000/svg" viewBox="0 0 589 150"><defs><style>.cls-1,.cls-2{fill:#fff;}.cls-1{opacity:0;}</style></defs><title>Translated_Tertiary_White_rgb</title><rect class="cls-1" width="588" height="150"/><path class="cls-2" d="M79.56,105.9a19.81,19.81,0,0,1-12.35,3.86c-6.33,0-11.17-2.08-14-6.63-1.78-2.66-2.47-5.83-2.47-10.87V65.08H38v-8.4H50.7V42.74h11V92.36c0,5.24,2.47,7.71,7,7.71a10.33,10.33,0,0,0,6.52-2.27Z"/><path class="cls-2" d="M121.37,68.15a12.26,12.26,0,0,0-5.93-1.59c-6.62,0-12.46,5.74-12.46,15.62v26.39H92.11V56.68H103v8.4c3.46-5.43,8.6-9.39,14.63-9.39a13.12,13.12,0,0,1,6.92,1.78Z"/><path class="cls-2" d="M172.46,109.36c-4.84,0-9.29-2.27-10.37-7.71-4.25,6.13-11.17,8.11-17.3,8.11-10.68,0-17.79-5.84-17.79-16,0-12.84,11.36-14.82,20.26-15.81,7.51-.79,13.15-1.48,13.15-6.52s-5.74-6.63-10.58-6.63A28.7,28.7,0,0,0,133.62,70l-4.35-8.2a37.94,37.94,0,0,1,21.35-6.33c12.26,0,20.86,4.95,20.86,17.4V96.51c0,3.36,1.08,4.75,3.65,4.75a5.32,5.32,0,0,0,2.87-.7l1.18,7.52A17.25,17.25,0,0,1,172.46,109.36ZM160.5,81c-3,3.76-7.41,3.76-12.94,4.65S138,88.11,138,93.55s4.15,7.71,9.49,7.71c6.82,0,13-3.66,13-12.36Z"/><path class="cls-2" d="M186.1,108.57V56.68H197v7.61c4.25-5.63,10-8.8,17-8.8,11.37,0,17.89,7.61,17.89,19.28v33.8H221V77.24c0-5.54-1.78-11.76-10.28-11.76-7.71,0-13.74,5.43-13.74,14v29.06Z"/><path class="cls-2" d="M263.78,109.76c-10.57,0-19.17-4.06-24.11-11.67l7.7-5.43c4,5.53,10.28,8.2,17,8.2,6.43,0,10.78-2.37,10.78-6.92,0-4.74-4.75-5.73-13.15-7.11-10.87-1.88-19.57-5-19.57-15.62S252,55.49,262.79,55.49c10.48,0,18.09,4.55,22.34,9.1l-6.92,6.32a20.4,20.4,0,0,0-15.52-6.52c-4.94,0-9.68,1.78-9.68,5.83,0,4.55,5.53,5.54,12.35,6.72,11.07,2,20.56,4.85,20.56,15.82C285.92,102.94,277.62,109.76,263.78,109.76Z"/><path class="cls-2" d="M295.6,38h10.88V95c0,4.25,1.78,5.44,4.54,5.44a9.1,9.1,0,0,0,4.45-1.09l2.08,8.3a17,17,0,0,1-8.4,1.88c-4.85,0-9-1.48-11.37-4.75-1.68-2.47-2.18-5.33-2.18-9.88Z"/><path class="cls-2" d="M369,109.36c-4.84,0-9.29-2.27-10.38-7.71-4.25,6.13-11.17,8.11-17.29,8.11-10.68,0-17.79-5.84-17.79-16,0-12.84,11.36-14.82,20.26-15.81,7.51-.79,13.14-1.48,13.14-6.52s-5.73-6.63-10.57-6.63A28.7,28.7,0,0,0,330.12,70l-4.35-8.2a37.9,37.9,0,0,1,21.35-6.33c12.25,0,20.85,4.95,20.85,17.4V96.51c0,3.36,1.09,4.75,3.66,4.75a5.34,5.34,0,0,0,2.87-.7l1.18,7.52A17.28,17.28,0,0,1,369,109.36ZM357,81c-3,3.76-7.41,3.76-12.95,4.65s-9.58,2.47-9.58,7.91,4.15,7.71,9.48,7.71c6.82,0,13.05-3.66,13.05-12.36Z"/><path class="cls-2" d="M414.13,105.9a19.86,19.86,0,0,1-12.36,3.86c-6.32,0-11.17-2.08-14-6.63-1.78-2.66-2.47-5.83-2.47-10.87V65.08h-8.7v-8.4h8.7V42.74h11V56.68h16v8.4h-16V92.36c0,5.24,2.47,7.71,7,7.71a10.36,10.36,0,0,0,6.53-2.27Z"/><path class="cls-2" d="M469.18,85.34H429.64c.49,9.49,6.72,14.73,15.91,14.73a19.87,19.87,0,0,0,15-6.52l7.11,6.82c-5.43,5.73-12.65,9.39-22.53,9.39-17.5,0-27.18-11.57-27.18-26.89s9.78-27.38,26.09-27.38c15.72,0,25.3,11.17,25.3,26.1A37,37,0,0,1,469.18,85.34Zm-10.78-7.9c-.79-8.7-6.82-13.15-14.23-13.15-8.2,0-13.74,5.44-14.33,13.15Z"/><path class="cls-2" d="M516.81,108.57V101a20.87,20.87,0,0,1-17.49,8.8c-14.73,0-23.82-11.77-23.82-27.09s9.09-27.18,23.82-27.18a20.74,20.74,0,0,1,17.49,8.8V38h11v70.57ZM501.69,65.28c-9.89,0-14.63,7.81-14.63,17.39S491.8,100,501.69,100s15.12-7.71,15.12-17.3S511.57,65.28,501.69,65.28Z"/><circle class="cls-2" cx="544.58" cy="102.06" r="6.42"/><path class="cls-2" d="M70.34,60.63h0a6.31,6.31,0,0,1,6.26-6.36h.2a6.31,6.31,0,0,1,6.26,6.36h0A6.3,6.3,0,0,1,76.8,67h-.2A6.3,6.3,0,0,1,70.34,60.63Z"/></svg>