<svg id="Layer_1" data-name="Layer 1" xmlns="http://www.w3.org/2000/svg" viewBox="0 0 760 216"><defs><style>.cls-1{fill:#fff;opacity:0;}</style></defs><title>Translated_Primary_black_rgb</title><rect class="cls-1" x="-0.5" y="-1" width="760" height="216"/><path d="M252.54,137.7a19.81,19.81,0,0,1-12.35,3.86c-6.32,0-11.16-2.08-14-6.62-1.78-2.67-2.47-5.83-2.47-10.87V96.9H215V88.51h8.69V74.58h11V88.51h16V96.9h-16v27.27c0,5.23,2.47,7.7,7,7.7a10.25,10.25,0,0,0,6.52-2.27Z"/><path d="M290.32,100a12.22,12.22,0,0,0-5.92-1.58c-6.62,0-12.45,5.73-12.45,15.6v26.38H261.08V88.51H272V96.9c3.46-5.43,8.59-9.38,14.62-9.38a13.11,13.11,0,0,1,6.91,1.78Z"/><path d="M341.39,141.16c-4.84,0-9.29-2.27-10.37-7.71-4.25,6.13-11.16,8.11-17.29,8.11-10.67,0-17.78-5.83-17.78-16,0-12.84,11.36-14.82,20.25-15.8,7.51-.79,13.14-1.48,13.14-6.52s-5.73-6.62-10.57-6.62a28.73,28.73,0,0,0-16.2,5.23l-4.35-8.19a37.89,37.89,0,0,1,21.34-6.33c12.25,0,20.84,4.94,20.84,17.39v23.61c0,3.36,1.09,4.74,3.66,4.74a5.37,5.37,0,0,0,2.86-.69l1.19,7.51A17.46,17.46,0,0,1,341.39,141.16Zm-11.95-28.35c-3,3.75-7.41,3.75-12.94,4.64s-9.59,2.47-9.59,7.9,4.15,7.71,9.49,7.71c6.81,0,13-3.66,13-12.35Z"/><path d="M355,140.37V88.51h10.87v7.6c4.24-5.63,10-8.79,17-8.79,11.36,0,17.88,7.61,17.88,19.27v33.78H389.89V109.06c0-5.54-1.78-11.76-10.27-11.76-7.71,0-13.73,5.43-13.73,14v29Z"/><path d="M432.66,141.56c-10.57,0-19.17-4.06-24.1-11.66l7.7-5.43c3.95,5.53,10.27,8.19,17,8.19,6.42,0,10.77-2.37,10.77-6.91,0-4.74-4.74-5.73-13.14-7.11C420,116.76,411.32,113.7,411.32,103s9.58-15.71,20.35-15.71c10.47,0,18.08,4.55,22.33,9.09l-6.92,6.32a20.39,20.39,0,0,0-15.51-6.52c-4.94,0-9.68,1.78-9.68,5.83,0,4.55,5.53,5.53,12.35,6.72,11.06,2,20.55,4.84,20.55,15.8C454.79,134.74,446.49,141.56,432.66,141.56Z"/><path d="M464.46,69.84h10.87v57c0,4.24,1.78,5.43,4.54,5.43a9,9,0,0,0,4.45-1.09l2.07,8.3a17,17,0,0,1-8.39,1.88c-4.84,0-9-1.48-11.36-4.74-1.68-2.47-2.18-5.34-2.18-9.88Z"/><path d="M537.78,141.16c-4.84,0-9.29-2.27-10.37-7.71-4.25,6.13-11.16,8.11-17.29,8.11-10.67,0-17.78-5.83-17.78-16,0-12.84,11.36-14.82,20.25-15.8,7.51-.79,13.14-1.48,13.14-6.52s-5.73-6.62-10.57-6.62a28.73,28.73,0,0,0-16.2,5.23l-4.35-8.19A37.89,37.89,0,0,1,516,87.32c12.25,0,20.84,4.94,20.84,17.39v23.61c0,3.36,1.09,4.74,3.66,4.74a5.37,5.37,0,0,0,2.86-.69l1.19,7.51A17.46,17.46,0,0,1,537.78,141.16Zm-11.95-28.35c-3,3.75-7.41,3.75-12.94,4.64s-9.58,2.47-9.58,7.9,4.14,7.71,9.48,7.71c6.81,0,13-3.66,13-12.35Z"/><path d="M582.92,137.7a19.81,19.81,0,0,1-12.35,3.86c-6.32,0-11.16-2.08-14-6.62-1.78-2.67-2.47-5.83-2.47-10.87V96.9h-8.7V88.51h8.7V74.58h11V88.51h16V96.9H565v27.27c0,5.23,2.47,7.7,7,7.7a10.25,10.25,0,0,0,6.52-2.27Z"/><path d="M637.94,117.16H598.43c.49,9.48,6.71,14.71,15.9,14.71a19.85,19.85,0,0,0,15-6.52l7.11,6.82c-5.43,5.73-12.65,9.39-22.52,9.39-17.49,0-27.17-11.56-27.17-26.87s9.78-27.37,26.08-27.37c15.71,0,25.29,11.17,25.29,26.08A34,34,0,0,1,637.94,117.16Zm-10.77-7.91c-.79-8.69-6.81-13.14-14.22-13.14-8.2,0-13.73,5.44-14.33,13.14Z"/><path d="M685.55,140.37v-7.61a20.85,20.85,0,0,1-17.49,8.8c-14.71,0-23.8-11.76-23.8-27.07s9.09-27.17,23.8-27.17a20.75,20.75,0,0,1,17.49,8.79V69.84h11v70.53ZM670.44,97.1c-9.88,0-14.62,7.81-14.62,17.39s4.74,17.29,14.62,17.29,15.11-7.71,15.11-17.29S680.31,97.1,670.44,97.1Z"/><path d="M108,47.88A60.12,60.12,0,1,1,47.88,108,60.19,60.19,0,0,1,108,47.88M108,38a70,70,0,1,0,70,70,70,70,0,0,0-70-70Z"/><path d="M124.91,137.39a19.63,19.63,0,0,1-12.26,3.83c-6.28,0-11.09-2.06-13.94-6.57-1.76-2.65-2.45-5.79-2.45-10.8v-27H83.67V88.53H96.26V74.69h10.89V124c0,5.2,2.45,7.65,7,7.65a10.26,10.26,0,0,0,6.47-2.25Z"/><path d="M119.88,92.59h0a6.37,6.37,0,0,1,6.32-6.42h.2a6.37,6.37,0,0,1,6.32,6.42h0A6.37,6.37,0,0,1,126.4,99h-.2A6.37,6.37,0,0,1,119.88,92.59Z"/><circle cx="713.3" cy="133.86" r="6.42"/></svg>