<?xml version="1.0" encoding="utf-8"?>
<!-- Generator: Adobe Illustrator 27.8.0, SVG Export Plug-In . SVG Version: 6.00 Build 0)  -->
<svg version="1.1" id="Livello_1" xmlns="http://www.w3.org/2000/svg" xmlns:xlink="http://www.w3.org/1999/xlink" x="0px" y="0px"
	 viewBox="0 0 143 118.8" style="enable-background:new 0 0 143 118.8;" xml:space="preserve">
<style type="text/css">
	.st0{fill:none;stroke:#010202;stroke-width:0.5;stroke-miterlimit:10;}
	.st1{fill:none;stroke:#010202;stroke-width:1.963;stroke-miterlimit:10;}
	.st2{fill:#010202;}
	.st3{opacity:0.21;}
	.st4{fill:none;stroke:#010202;stroke-width:1.6;stroke-miterlimit:10;}
	.st5{fill:#010202;stroke:#010202;stroke-miterlimit:10;}
	.st6{fill:#FFFFFF;stroke:#010202;stroke-width:1.6;stroke-miterlimit:10;}
	.st7{fill:none;stroke:#010202;stroke-width:1.963;stroke-linecap:round;stroke-miterlimit:10;}
	.st8{opacity:0.3;fill:none;stroke:#010202;stroke-width:1.963;stroke-linecap:round;stroke-miterlimit:10;}
	.st9{fill:#FFFFFF;stroke:#010202;stroke-width:2.3698;stroke-linecap:round;stroke-miterlimit:10;}
	.st10{fill:none;stroke:#010202;stroke-width:2.3698;stroke-linecap:round;stroke-miterlimit:10;}
</style>
<g>
	<g>
		<path class="st7" d="M54.1,46.2H18.5c-4,0-7.2,3.2-7.2,7.2v12.3c0,4,3.2,7.2,7.2,7.2l0,11.5l12.2-11.5h23.4c4,0,7.2-3.2,7.2-7.2
			V53.4C61.2,49.4,58,46.2,54.1,46.2z"/>
		<line class="st8" x1="21.6" y1="63.4" x2="50.2" y2="63.4"/>
		<line class="st8" x1="21.6" y1="57.4" x2="50.2" y2="57.4"/>
	</g>
	<g>
		<path class="st7" d="M71.9,51.7H36.4c-4,0-7.2-3.2-7.2-7.2V32.3c0-4,3.2-7.2,7.2-7.2l0-11.5l12.2,11.5h23.4c4,0,7.2,3.2,7.2,7.2
			v12.3C79.1,48.5,75.9,51.7,71.9,51.7z"/>
		<line class="st8" x1="68.5" y1="40.4" x2="39.9" y2="40.4"/>
		<line class="st8" x1="68.5" y1="34.4" x2="39.9" y2="34.4"/>
	</g>
	<g>
		<path class="st7" d="M80.5,56.6h35.6c4,0,7.2-3.2,7.2-7.2V37.2c0-4-3.2-7.2-7.2-7.2l0-11.5L103.8,30H80.5c-4,0-7.2,3.2-7.2,7.2
			v12.3C73.3,53.4,76.5,56.6,80.5,56.6z"/>
		<line class="st8" x1="84" y1="45.4" x2="112.6" y2="45.4"/>
		<line class="st8" x1="84" y1="39.4" x2="112.6" y2="39.4"/>
	</g>
	<g>
		<path class="st7" d="M53.8,66.9h35.6c4,0,7.2,3.2,7.2,7.2v12.3c0,4-3.2,7.2-7.2,7.2l0,11.5L77.2,93.5H53.8c-4,0-7.2-3.2-7.2-7.2
			V74.1C46.7,70.1,49.9,66.9,53.8,66.9z"/>
		<line class="st8" x1="57.3" y1="78.2" x2="85.9" y2="78.2"/>
		<line class="st8" x1="57.3" y1="84.2" x2="85.9" y2="84.2"/>
	</g>
	<g>
		<path class="st7" d="M93.9,51.7h35.6c4,0,7.2,3.2,7.2,7.2v12.3c0,4-3.2,7.2-7.2,7.2l0,11.5l-12.2-11.5H93.9c-4,0-7.2-3.2-7.2-7.2
			V58.9C86.7,54.9,89.9,51.7,93.9,51.7z"/>
		<line class="st8" x1="97.4" y1="63" x2="126" y2="63"/>
		<line class="st8" x1="97.4" y1="69" x2="126" y2="69"/>
	</g>
</g>
</svg>
