<?xml version="1.0" encoding="utf-8"?>
<!-- Generator: Adobe Illustrator 27.8.0, SVG Export Plug-In . SVG Version: 6.00 Build 0)  -->
<svg version="1.1" id="Livello_1" xmlns="http://www.w3.org/2000/svg" xmlns:xlink="http://www.w3.org/1999/xlink" x="0px" y="0px"
	 viewBox="0 0 147.8 158.9" style="enable-background:new 0 0 147.8 158.9;" xml:space="preserve">
<style type="text/css">
	.st0{fill:none;stroke:#010202;stroke-width:0.5;stroke-miterlimit:10;}
	.st1{fill:none;stroke:#010202;stroke-width:1.963;stroke-miterlimit:10;}
	.st2{fill:#010202;}
	.st3{opacity:0.21;}
	.st4{fill:none;stroke:#010202;stroke-width:1.6;stroke-miterlimit:10;}
	.st5{fill:#010202;stroke:#010202;stroke-miterlimit:10;}
	.st6{fill:#FFFFFF;stroke:#010202;stroke-width:1.6;stroke-miterlimit:10;}
	.st7{fill:none;stroke:#010202;stroke-width:1.963;stroke-linecap:round;stroke-miterlimit:10;}
	.st8{opacity:0.3;fill:none;stroke:#010202;stroke-width:1.963;stroke-linecap:round;stroke-miterlimit:10;}
	.st9{fill:#FFFFFF;stroke:#010202;stroke-width:2.3698;stroke-linecap:round;stroke-miterlimit:10;}
	.st10{fill:none;stroke:#010202;stroke-width:2.3698;stroke-linecap:round;stroke-miterlimit:10;}
</style>
<g>
	<g>
		<line class="st4" x1="107.4" y1="19" x2="107.4" y2="36.5"/>
		<circle class="st5" cx="116.4" cy="19" r="1.5"/>
		<circle class="st5" cx="107.4" cy="18.3" r="1.5"/>
		<circle class="st5" cx="102.5" cy="23.3" r="1.5"/>
		<polyline class="st4" points="83.4,34.1 90.4,34.1 92,36.5 102.5,36.5 102.5,36.5 102.5,23.9 		"/>
		<line class="st4" x1="88.6" y1="41.4" x2="102.5" y2="41.4"/>
		<circle class="st5" cx="82.8" cy="34.1" r="1.5"/>
		<circle class="st5" cx="84.4" cy="46.3" r="1.5"/>
		<circle class="st5" cx="88" cy="41.4" r="1.5"/>
		<polyline class="st4" points="128.2,36.5 112.3,36.5 112.3,36.5 112.3,26.7 116.4,23.2 116.4,19.6 		"/>
		<line class="st4" x1="126.1" y1="41.4" x2="112.2" y2="41.4"/>
		<circle class="st5" cx="128.9" cy="36.5" r="1.5"/>
		<circle class="st5" cx="126.8" cy="41.4" r="1.5"/>
		<circle class="st5" cx="130.9" cy="48.6" r="1.5"/>
		<polyline class="st4" points="103.3,70.3 103.3,64.9 107.4,61.6 107.4,46.2 		"/>
		<circle class="st5" cx="112.3" cy="61.2" r="1.5"/>
		<circle class="st5" cx="103.3" cy="71" r="1.5"/>
		<circle class="st5" cx="102.5" cy="59.5" r="1.5"/>
		<polyline class="st4" points="85,46.3 102.5,46.3 102.5,46.3 102.5,58.8 		"/>
		<polyline class="st4" points="130.3,48.6 127.2,48.6 124.9,46.3 112.3,46.3 112.3,46.3 112.3,60.5 		"/>
		<path class="st4" d="M101.3,53.7h12.1c3.2,0,5.7-2.6,5.7-5.7V35.8c0-3.2-2.6-5.7-5.7-5.7h-12.1c-3.2,0-5.7,2.6-5.7,5.7v12.1
			C95.6,51.1,98.2,53.7,101.3,53.7z"/>
		<path class="st6" d="M104.9,48.3h4.9c2.2,0,4-1.8,4-4v-4.9c0-2.2-1.8-4-4-4h-4.9c-2.2,0-4,1.8-4,4v4.9
			C101,46.5,102.8,48.3,104.9,48.3z"/>
	</g>
	<path class="st1" d="M87.1,63v14.9c0,6.4-11.8,11.6-26.4,11.6s-26.4-5.2-26.4-11.6V63.3"/>
	<path class="st1" d="M87.1,77.9v14.9c0,6.4-11.8,11.6-26.4,11.6s-26.4-5.2-26.4-11.6V78.1"/>
	<path class="st1" d="M87.1,93.3v14.9c0,6.4-11.8,11.6-26.4,11.6s-26.4-5.2-26.4-11.6V93.5"/>
	<path class="st1" d="M87.1,107.6v14.9c0,6.4-11.8,11.6-26.4,11.6s-26.4-5.2-26.4-11.6v-14.6"/>
	<ellipse class="st1" cx="60.7" cy="63" rx="26.4" ry="11.6"/>
	
		<ellipse transform="matrix(0.9974 -7.248542e-02 7.248542e-02 0.9974 -5.6181 3.2567)" class="st1" cx="42.1" cy="79" rx="1.9" ry="3.3"/>
	
		<ellipse transform="matrix(0.9974 -7.248542e-02 7.248542e-02 0.9974 -6.6688 3.2948)" class="st1" cx="42.1" cy="93.5" rx="1.9" ry="3.3"/>
	
		<ellipse transform="matrix(0.9974 -7.248542e-02 7.248542e-02 0.9974 -7.7696 3.3347)" class="st1" cx="42.1" cy="108.7" rx="1.9" ry="3.3"/>
	
		<ellipse transform="matrix(0.9974 -7.248542e-02 7.248542e-02 0.9974 -8.8142 3.3726)" class="st1" cx="42.1" cy="123.1" rx="1.9" ry="3.3"/>
</g>
</svg>
