<?xml version="1.0" encoding="utf-8"?>
<!-- Generator: Adobe Illustrator 27.8.0, SVG Export Plug-In . SVG Version: 6.00 Build 0)  -->
<svg version="1.1" id="Livello_1" xmlns="http://www.w3.org/2000/svg" xmlns:xlink="http://www.w3.org/1999/xlink" x="0px" y="0px"
	 viewBox="0 0 240.5 176.5" style="enable-background:new 0 0 240.5 176.5;" xml:space="preserve">
<style type="text/css">
	.st0{fill:none;stroke:#010202;stroke-width:0.5;stroke-miterlimit:10;}
	.st1{fill:none;stroke:#010202;stroke-width:1.963;stroke-miterlimit:10;}
	.st2{fill:#010202;}
	.st3{opacity:0.21;}
	.st4{fill:none;stroke:#010202;stroke-width:1.6;stroke-miterlimit:10;}
	.st5{fill:#010202;stroke:#010202;stroke-miterlimit:10;}
	.st6{fill:#FFFFFF;stroke:#010202;stroke-width:1.6;stroke-miterlimit:10;}
	.st7{fill:none;stroke:#010202;stroke-width:1.963;stroke-linecap:round;stroke-miterlimit:10;}
	.st8{opacity:0.3;fill:none;stroke:#010202;stroke-width:1.963;stroke-linecap:round;stroke-miterlimit:10;}
	.st9{fill:#FFFFFF;stroke:#010202;stroke-width:2.3698;stroke-linecap:round;stroke-miterlimit:10;}
	.st10{fill:none;stroke:#010202;stroke-width:2.3698;stroke-linecap:round;stroke-miterlimit:10;}
</style>
<g>
	<path class="st0" d="M171.5,122.1l-12-7.6c-2-1.3-3.2-3.4-3.2-5.8V54.9"/>
	<path class="st1" d="M156.3,54.9V41.8c0-2.2,2.4-3.5,4.2-2.3l37,23.4c2,1.3,3.2,3.4,3.2,5.8v66.9c0,2.2-2.4,3.5-4.2,2.3l-25-15.7"
		/>
	<path class="st0" d="M140.1,120.8l-9.9-6.3c-2-1.3-3.2-3.4-3.2-5.8V50.8"/>
	<path class="st1" d="M127,56.5V41.8c0-2.2,2.4-3.5,4.2-2.3l37,23.4c2,1.3,3.2,3.4,3.2,5.8v66.9c0,2.2-2.4,3.5-4.2,2.3l-27.2-17"/>
	<path class="st0" d="M117.9,126.4L99,114.5c-2-1.3-3.2-3.4-3.2-5.8V57.1"/>
	<path class="st1" d="M95.8,57.1V41.8c0-2.2,2.4-3.5,4.2-2.3l37,23.4c2,1.3,3.2,3.4,3.2,5.8v66.9c0,2.2-2.4,3.5-4.2,2.3l-27.4-17.3"
		/>
	<path class="st1" d="M63.5,50.8v-9c0-2.2,2.4-3.5,4.2-2.3l37,23.4c2,1.3,3.2,3.4,3.2,5.8v66.9c0,2.2-2.4,3.5-4.2,2.3l-18.1-11.4
		l-11.4-7.2"/>
	<g>
		<circle class="st2" cx="214.4" cy="85.3" r="5.6"/>
		<polygon class="st2" points="220.7,74.1 208.1,74.1 214.4,62.8 		"/>
		<rect x="208.8" y="97" class="st2" width="11.8" height="11.8"/>
	</g>
	<g class="st3">
		<circle class="st2" cx="178" cy="102.9" r="5.6"/>
		<polygon class="st2" points="184.3,90.9 171.8,90.9 178,79.6 		"/>
		<rect x="172.4" y="62.5" class="st2" width="11.8" height="11.8"/>
	</g>
	<g class="st3">
		<circle class="st2" cx="114.2" cy="85.2" r="5.6"/>
		<polygon class="st2" points="120.5,73.9 107.9,73.9 114.2,62.5 		"/>
		<rect x="108.6" y="96.7" class="st2" width="11.8" height="11.8"/>
	</g>
	<g class="st3">
		<circle class="st2" cx="146.5" cy="68.2" r="5.6"/>
		<polygon class="st2" points="152.8,108.5 140.3,108.5 146.5,97.2 		"/>
		<rect x="140.9" y="80.1" class="st2" width="11.8" height="11.8"/>
	</g>
	<g>
		<circle class="st2" cx="83.3" cy="68.2" r="5.6"/>
		<polygon class="st2" points="89.5,108.5 77,108.5 83.3,97.2 		"/>
		<rect x="77.7" y="79.1" class="st2" width="11.8" height="11.8"/>
	</g>
	<g>
		<circle class="st2" cx="48.9" cy="78" r="4.3"/>
		<circle class="st2" cx="48.9" cy="118.1" r="4.3"/>
		<polygon class="st2" points="53.7,108.7 44.1,108.7 48.9,100.1 		"/>
		<polygon class="st2" points="53.7,69.1 44.1,69.1 48.9,60.5 		"/>
		<rect x="44.6" y="86.4" class="st2" width="9" height="9"/>
	</g>
	<g>
		<circle class="st2" cx="36" cy="60.1" r="4.1"/>
		<circle class="st2" cx="36" cy="97.6" r="4.1"/>
		<circle class="st2" cx="64.1" cy="77.5" r="6.2"/>
		<polygon class="st2" points="40.6,89.2 31.3,89.2 36,80.8 		"/>
		<polygon class="st2" points="40.6,76.6 31.3,76.6 36,68.2 		"/>
		<polygon class="st2" points="40.6,127.8 31.3,127.8 36,119.4 		"/>
		<polygon class="st2" points="70,97.9 58.2,97.9 64.1,87.3 		"/>
		<rect x="31.8" y="106.7" class="st2" width="8.7" height="8.7"/>
		<circle class="st2" cx="48.9" cy="52.2" r="4.3"/>
		<rect x="31.8" y="42.7" class="st2" width="8.7" height="8.7"/>
		<circle class="st2" cx="22.3" cy="82.3" r="3.3"/>
		<circle class="st2" cx="22.3" cy="62" r="3.3"/>
		<polygon class="st2" points="26,68.8 18.6,68.8 22.3,75.6 		"/>
		<polygon class="st2" points="26,95.6 18.6,95.6 22.3,88.9 		"/>
		<polygon class="st2" points="26,138.3 18.6,138.3 22.3,131.5 		"/>
		<polygon class="st2" points="26,37.7 18.6,37.7 22.3,44.5 		"/>
		<rect x="18.9" y="47.7" class="st2" width="7" height="7"/>
		<circle class="st2" cx="22.3" cy="124.4" r="3.3"/>
		<rect x="18.9" y="110.1" class="st2" width="7" height="7"/>
		<rect x="18.9" y="99.2" class="st2" width="7" height="7"/>
		<rect x="58.4" y="55.3" class="st2" width="11.4" height="11.4"/>
		<rect x="58.4" y="103.5" class="st2" width="11.4" height="11.4"/>
	</g>
</g>
</svg>
